<?xml version="1.0" encoding="utf-8"?>
<!-- Generator: Adobe Illustrator 17.0.0, SVG Export Plug-In . SVG Version: 6.00 Build 0)  -->
<!DOCTYPE svg PUBLIC "-//W3C//DTD SVG 1.1//EN" "http://www.w3.org/Graphics/SVG/1.1/DTD/svg11.dtd">
<svg version="1.1" id="Layer_1" xmlns="http://www.w3.org/2000/svg" xmlns:xlink="http://www.w3.org/1999/xlink" x="0px" y="0px"
	 width="1200px" height="1200px" viewBox="0 0 1200 1200" enable-background="new 0 0 1200 1200" xml:space="preserve">
<g>
	
		<linearGradient id="SVGID_1_" gradientUnits="userSpaceOnUse" x1="598.4879" y1="188.2585" x2="598.4879" y2="1236.0703" gradientTransform="matrix(1 -0.0041 0.0041 1 -1.614 2.0509)">
		<stop  offset="0" style="stop-color:#2B2B2B"/>
		<stop  offset="0.21" style="stop-color:#1F1F1F"/>
		<stop  offset="0.6942" style="stop-color:#080808"/>
		<stop  offset="1" style="stop-color:#000000"/>
	</linearGradient>
	<path fill="url(#SVGID_1_)" d="M612.191,62.156c0,0,108.369,191.632,290.121,333.675
		c174.353,136.255,273.242,357.954,157.395,508.892c-115.847,150.924-327.541,13.464-359.241-30.07
		c-31.733-43.543-70.615-57.942-65.513,0.266c5.09,58.217,146.698,273.598,146.698,273.598L420.112,1150
		c0,0,142.284-209.268,144.456-277.217c2.16-67.939-19.589-41.169-36.467-14.399c-16.867,26.759-101.44,114.459-261.569,115.125
		c-160.153,0.644-229.549-189.818-130.163-378.002c77.001-145.757,184.921-211.338,274.471-307.263
		c70.121-75.13,174.64-230.824,174.64-230.824S604.828,37.912,612.191,62.156z"/>
	<g>
		<path fill="#3E363B" d="M432.348,1138.27l336.998-1.379c0,0-4.93-7.906-12.904-20.968l-310.754,1.275
			C437.482,1130.331,432.348,1138.27,432.348,1138.27z"/>
		<path fill="#3E363B" d="M895.866,400.151C717.986,261.129,611.927,73.587,611.927,73.587c-7.238-23.737-26.149-4.643-26.149-4.643
			S483.475,221.33,414.836,294.862c-87.641,93.891-193.262,158.084-268.635,300.726c-97.27,184.187-29.342,370.616,127.408,369.971
			c156.727-0.642,239.509-86.493,256.009-112.666c16.521-26.206,37.799-52.414,35.686,14.088c0,0.056-0.024,0.125-0.024,0.184
			c0.725-3.826,1.24-7.433,1.344-10.629c2.033-63.916-18.406-38.719-34.284-13.547c-15.867,25.163-95.397,107.645-246.001,108.266
			C135.723,951.864,70.44,772.744,163.908,595.748c72.429-137.058,173.927-198.757,258.145-288.97
			c65.96-70.662,164.252-217.094,164.252-217.094s18.189-18.349,25.128,4.445c0,0,101.924,180.236,272.852,313.825
			c163.979,128.142,256.985,336.664,148.018,478.616c-108.953,141.94-308.032,12.662-337.859-28.288
			c-29.837-40.936-66.408-54.494-61.617,0.254c0.195,2.148,0.642,4.631,1.219,7.214c-3.127-52.873,33.858-38.66,64.259,3.057
			c31.055,42.604,238.222,177.144,351.625,29.437C1163.306,750.524,1066.518,533.51,895.866,400.151z"/>
	</g>
</g>
</svg>
