<svg width="706" height="642" viewBox="0 0 706 642" fill="none" xmlns="http://www.w3.org/2000/svg">
<g id="Group 3">
<g id="Group 2">
<path id="Rectangle 2" d="M0.00012207 13.692H704V639.692H0.00012207V13.692Z" fill="#041818" fill-opacity="0.8"/>
<g id="Frame 1">
<path id="experience" d="M48.8961 24.588C46.2801 24.588 44.3481 23.832 43.1001 22.32C41.8761 20.784 41.2641 18.66 41.2641 15.948C41.2641 14.076 41.5401 12.468 42.0921 11.124C42.6681 9.78002 43.5201 8.74802 44.6481 8.02802C45.8001 7.30802 47.2281 6.94802 48.9321 6.94802C50.4441 6.94802 51.6681 7.21202 52.6041 7.74002C53.5401 8.24402 54.2601 8.92802 54.7641 9.79202C55.2681 10.632 55.6041 11.556 55.7721 12.564C55.9641 13.572 56.0601 14.58 56.0601 15.588V15.912H43.9641L44.0001 14.76H52.7121C52.7121 13.32 52.5921 12.108 52.3521 11.124C52.1361 10.116 51.7521 9.36002 51.2001 8.85602C50.6721 8.32802 49.9281 8.06402 48.9681 8.06402C47.9601 8.06402 47.1321 8.34002 46.4841 8.89202C45.8601 9.44402 45.3921 10.26 45.0801 11.34C44.7921 12.396 44.6361 13.704 44.6121 15.264C44.6121 16.296 44.6721 17.28 44.7921 18.216C44.9361 19.152 45.1881 19.992 45.5481 20.736C45.9321 21.48 46.4601 22.068 47.1321 22.5C47.8281 22.932 48.7281 23.148 49.8321 23.148C50.8641 23.148 51.7161 22.968 52.3881 22.608C53.0601 22.224 53.6001 21.732 54.0081 21.132C54.4161 20.532 54.7281 19.92 54.9441 19.296L55.9161 19.728C55.6521 20.544 55.2561 21.324 54.7281 22.068C54.2241 22.812 53.5041 23.424 52.5681 23.904C51.6561 24.36 50.4321 24.588 48.8961 24.588ZM67.4311 24.192V23.148H68.5831C68.8951 23.148 69.0871 23.04 69.1591 22.824C69.2311 22.608 69.1471 22.32 68.9071 21.96L60.7351 9.61202C60.3751 9.10802 60.0391 8.78402 59.7271 8.64002C59.4391 8.47202 58.9351 8.38802 58.2151 8.38802V7.34402H65.1271V8.38802H64.3351C64.0711 8.38802 63.8911 8.48402 63.7951 8.67602C63.7231 8.86802 63.7711 9.09602 63.9391 9.36002L72.2191 21.636C72.6031 22.164 72.9751 22.548 73.3351 22.788C73.6951 23.028 74.3071 23.148 75.1711 23.148V24.192H67.4311ZM58.0711 24.192V23.148C58.8151 23.148 59.4271 23.04 59.9071 22.824C60.3871 22.608 60.8551 22.2 61.3111 21.6L65.6671 15.624L65.8471 17.028L62.5351 21.996C62.3671 22.284 62.3191 22.548 62.3911 22.788C62.4871 23.028 62.7031 23.148 63.0391 23.148H64.0831V24.192H58.0711ZM66.9631 15.228L66.7831 13.932L69.9151 9.28802C70.1071 9.02402 70.1551 8.80802 70.0591 8.64002C69.9871 8.47202 69.8311 8.38802 69.5911 8.38802H68.4751V7.34402H74.1271V8.38802C73.5751 8.38802 73.1311 8.42402 72.7951 8.49602C72.4591 8.56802 72.1711 8.70002 71.9311 8.89202C71.6911 9.06002 71.4391 9.31202 71.1751 9.64802L66.9631 15.228ZM76.6873 31.392V30.348C77.4793 30.348 78.0433 30.3 78.3793 30.204C78.7153 30.132 78.9193 29.952 78.9913 29.664C79.0873 29.376 79.1353 28.956 79.1353 28.404V10.332C79.1353 9.75602 79.0633 9.37202 78.9193 9.18002C78.7753 8.98802 78.4393 8.89202 77.9113 8.89202H76.8313V7.84802L81.1153 7.12802H82.0873V8.89202H82.1953V28.404C82.1953 28.956 82.2433 29.376 82.3393 29.664C82.4593 29.952 82.6993 30.132 83.0593 30.204C83.4433 30.3 84.0433 30.348 84.8593 30.348V31.392H76.6873ZM86.4793 24.624C85.5673 24.624 84.7873 24.492 84.1393 24.228C83.5153 23.988 82.9753 23.688 82.5193 23.328C82.0633 22.944 81.6313 22.584 81.2233 22.248V20.376C81.4633 20.736 81.7393 21.108 82.0513 21.492C82.3633 21.852 82.7233 22.188 83.1313 22.5C83.5393 22.788 83.9833 23.028 84.4633 23.22C84.9673 23.388 85.5073 23.472 86.0833 23.472C87.5713 23.472 88.7113 22.86 89.5033 21.636C90.3193 20.412 90.7273 18.48 90.7273 15.84C90.7273 13.536 90.3793 11.724 89.6833 10.404C88.9873 9.08402 87.8713 8.42402 86.3353 8.42402C85.5433 8.42402 84.8233 8.58002 84.1753 8.89202C83.5273 9.20402 82.9873 9.55202 82.5553 9.93602C82.1233 10.296 81.7993 10.572 81.5833 10.764V9.39602C81.8233 9.13202 82.1953 8.80802 82.6993 8.42402C83.2273 8.04002 83.8993 7.70402 84.7153 7.41602C85.5313 7.10402 86.4673 6.94802 87.5233 6.94802C89.6593 6.94802 91.2793 7.65602 92.3833 9.07202C93.5113 10.488 94.0753 12.588 94.0753 15.372C94.0753 17.508 93.7513 19.26 93.1033 20.628C92.4793 21.996 91.6033 23.004 90.4753 23.652C89.3473 24.3 88.0153 24.624 86.4793 24.624ZM105.216 24.588C102.6 24.588 100.668 23.832 99.4204 22.32C98.1964 20.784 97.5844 18.66 97.5844 15.948C97.5844 14.076 97.8604 12.468 98.4124 11.124C98.9884 9.78002 99.8404 8.74802 100.968 8.02802C102.12 7.30802 103.548 6.94802 105.252 6.94802C106.764 6.94802 107.988 7.21202 108.924 7.74002C109.86 8.24402 110.58 8.92802 111.084 9.79202C111.588 10.632 111.924 11.556 112.092 12.564C112.284 13.572 112.38 14.58 112.38 15.588V15.912H100.284L100.32 14.76H109.032C109.032 13.32 108.912 12.108 108.672 11.124C108.456 10.116 108.072 9.36002 107.52 8.85602C106.992 8.32802 106.248 8.06402 105.288 8.06402C104.28 8.06402 103.452 8.34002 102.804 8.89202C102.18 9.44402 101.712 10.26 101.4 11.34C101.112 12.396 100.956 13.704 100.932 15.264C100.932 16.296 100.992 17.28 101.112 18.216C101.256 19.152 101.508 19.992 101.868 20.736C102.252 21.48 102.78 22.068 103.452 22.5C104.148 22.932 105.048 23.148 106.152 23.148C107.184 23.148 108.036 22.968 108.708 22.608C109.38 22.224 109.92 21.732 110.328 21.132C110.736 20.532 111.048 19.92 111.264 19.296L112.236 19.728C111.972 20.544 111.576 21.324 111.048 22.068C110.544 22.812 109.824 23.424 108.888 23.904C107.976 24.36 106.752 24.588 105.216 24.588ZM115.327 24.192V23.148C116.119 23.148 116.683 23.1 117.019 23.004C117.355 22.908 117.559 22.728 117.631 22.464C117.727 22.176 117.775 21.756 117.775 21.204V10.476C117.775 9.85202 117.703 9.44402 117.559 9.25202C117.415 9.03602 117.139 8.92802 116.731 8.92802H115.507V7.84802L119.755 7.12802H120.727V10.512H120.835V21.204C120.835 21.78 120.883 22.212 120.979 22.5C121.099 22.764 121.351 22.944 121.735 23.04C122.119 23.112 122.731 23.148 123.571 23.148V24.192H115.327ZM120.691 14.04V10.728C120.859 10.416 121.063 10.044 121.303 9.61202C121.543 9.18002 121.843 8.76002 122.203 8.35202C122.563 7.94402 122.995 7.60802 123.499 7.34402C124.003 7.05602 124.579 6.91202 125.227 6.91202C126.091 6.91202 126.751 7.16402 127.207 7.66802C127.687 8.17202 127.927 8.86802 127.927 9.75602C127.927 10.428 127.759 10.98 127.423 11.412C127.111 11.844 126.595 12.06 125.875 12.06C125.251 12.06 124.783 11.892 124.471 11.556C124.159 11.22 124.003 10.824 124.003 10.368C124.003 10.008 124.075 9.72002 124.219 9.50402C124.363 9.28802 124.507 9.10802 124.651 8.96402C124.795 8.82002 124.867 8.67602 124.867 8.53202C124.867 8.43602 124.831 8.36402 124.759 8.31602C124.687 8.24402 124.567 8.20802 124.399 8.20802C124.039 8.20802 123.655 8.36402 123.247 8.67602C122.839 8.96402 122.443 9.38402 122.059 9.93602C121.699 10.464 121.399 11.076 121.159 11.772C120.943 12.468 120.835 13.212 120.835 14.004L120.691 14.04ZM129.494 24.192V23.148C130.262 23.148 130.814 23.1 131.15 23.004C131.51 22.908 131.726 22.728 131.798 22.464C131.894 22.176 131.942 21.756 131.942 21.204V10.476C131.942 9.85202 131.87 9.44402 131.726 9.25202C131.582 9.03602 131.306 8.92802 130.898 8.92802H129.638V7.84802L134.03 7.12802H135.002V21.204C135.002 21.78 135.05 22.212 135.146 22.5C135.242 22.764 135.458 22.944 135.794 23.04C136.154 23.112 136.718 23.148 137.486 23.148V24.192H129.494ZM133.382 3.96002C132.782 3.96002 132.302 3.76802 131.942 3.38402C131.582 3.00002 131.402 2.54401 131.402 2.01601C131.402 1.44001 131.582 0.960015 131.942 0.576016C132.302 0.192015 132.782 1.4782e-05 133.382 1.4782e-05C133.79 1.4782e-05 134.138 0.096015 134.426 0.288015C134.738 0.456016 134.966 0.696016 135.11 1.00801C135.278 1.29602 135.362 1.63202 135.362 2.01601C135.362 2.54401 135.17 3.00002 134.786 3.38402C134.426 3.76802 133.958 3.96002 133.382 3.96002ZM148.283 24.588C145.667 24.588 143.735 23.832 142.487 22.32C141.263 20.784 140.651 18.66 140.651 15.948C140.651 14.076 140.927 12.468 141.479 11.124C142.055 9.78002 142.907 8.74802 144.035 8.02802C145.187 7.30802 146.615 6.94802 148.319 6.94802C149.831 6.94802 151.055 7.21202 151.991 7.74002C152.927 8.24402 153.647 8.92802 154.151 9.79202C154.655 10.632 154.991 11.556 155.159 12.564C155.351 13.572 155.447 14.58 155.447 15.588V15.912H143.351L143.387 14.76H152.099C152.099 13.32 151.979 12.108 151.739 11.124C151.523 10.116 151.139 9.36002 150.587 8.85602C150.059 8.32802 149.315 8.06402 148.355 8.06402C147.347 8.06402 146.519 8.34002 145.871 8.89202C145.247 9.44402 144.779 10.26 144.467 11.34C144.179 12.396 144.023 13.704 143.999 15.264C143.999 16.296 144.059 17.28 144.179 18.216C144.323 19.152 144.575 19.992 144.935 20.736C145.319 21.48 145.847 22.068 146.519 22.5C147.215 22.932 148.115 23.148 149.219 23.148C150.251 23.148 151.103 22.968 151.775 22.608C152.447 22.224 152.987 21.732 153.395 21.132C153.803 20.532 154.115 19.92 154.331 19.296L155.303 19.728C155.039 20.544 154.643 21.324 154.115 22.068C153.611 22.812 152.891 23.424 151.955 23.904C151.043 24.36 149.819 24.588 148.283 24.588ZM169.158 24.192V23.148C169.878 23.148 170.406 23.112 170.742 23.04C171.078 22.968 171.294 22.8 171.39 22.536C171.486 22.272 171.534 21.852 171.534 21.276V12.528C171.534 11.808 171.426 11.16 171.21 10.584C170.994 10.008 170.634 9.55202 170.13 9.21602C169.65 8.85602 169.002 8.67602 168.186 8.67602C167.082 8.67602 166.182 8.97602 165.486 9.57602C164.79 10.176 164.166 10.872 163.614 11.664V10.116C164.19 9.39602 164.778 8.80802 165.378 8.35202C165.978 7.87202 166.626 7.52402 167.322 7.30802C168.042 7.06802 168.834 6.94802 169.698 6.94802C171.33 6.94802 172.542 7.38002 173.334 8.24402C174.15 9.10802 174.558 10.404 174.558 12.132V21.204C174.558 21.756 174.606 22.176 174.702 22.464C174.798 22.728 175.014 22.908 175.35 23.004C175.71 23.1 176.274 23.148 177.042 23.148V24.192H169.158ZM158.394 24.192V23.148C159.186 23.148 159.75 23.1 160.086 23.004C160.422 22.908 160.626 22.728 160.698 22.464C160.794 22.176 160.842 21.756 160.842 21.204V10.476C160.842 9.85202 160.77 9.44402 160.626 9.25202C160.482 9.03602 160.206 8.92802 159.798 8.92802H158.574V7.84802L162.822 7.12802H163.794V9.79202H163.902V21.276C163.902 21.852 163.95 22.272 164.046 22.536C164.142 22.8 164.358 22.968 164.694 23.04C165.054 23.112 165.582 23.148 166.278 23.148V24.192H158.394ZM187.064 24.588C185.384 24.588 183.956 24.228 182.78 23.508C181.628 22.788 180.752 21.78 180.152 20.484C179.576 19.188 179.288 17.664 179.288 15.912C179.288 14.64 179.444 13.464 179.756 12.384C180.092 11.28 180.584 10.332 181.232 9.54002C181.88 8.72402 182.72 8.08802 183.752 7.63202C184.784 7.17602 185.996 6.94802 187.388 6.94802C188.54 6.94802 189.56 7.10402 190.448 7.41602C191.36 7.72802 192.08 8.17202 192.608 8.74802C193.136 9.32402 193.4 10.032 193.4 10.872C193.4 11.472 193.244 11.964 192.932 12.348C192.62 12.708 192.152 12.888 191.528 12.888C190.928 12.888 190.472 12.72 190.16 12.384C189.848 12.048 189.692 11.628 189.692 11.124C189.692 10.74 189.752 10.44 189.872 10.224C190.016 10.008 190.148 9.82802 190.268 9.68402C190.412 9.54002 190.484 9.37202 190.484 9.18002C190.484 8.84402 190.232 8.58002 189.728 8.38802C189.248 8.17202 188.624 8.06402 187.856 8.06402C186.848 8.06402 185.948 8.29202 185.156 8.74802C184.388 9.18002 183.776 9.93602 183.32 11.016C182.888 12.096 182.672 13.596 182.672 15.516C182.672 17.34 182.876 18.816 183.284 19.944C183.716 21.072 184.316 21.888 185.084 22.392C185.876 22.896 186.8 23.148 187.856 23.148C188.936 23.148 189.8 22.956 190.448 22.572C191.12 22.188 191.636 21.744 191.996 21.24C192.356 20.712 192.608 20.28 192.752 19.944L193.616 20.448C193.52 20.76 193.34 21.144 193.076 21.6C192.812 22.056 192.428 22.512 191.924 22.968C191.444 23.424 190.808 23.808 190.016 24.12C189.224 24.432 188.24 24.588 187.064 24.588ZM204.322 24.588C201.706 24.588 199.774 23.832 198.526 22.32C197.302 20.784 196.69 18.66 196.69 15.948C196.69 14.076 196.966 12.468 197.518 11.124C198.094 9.78002 198.946 8.74802 200.074 8.02802C201.226 7.30802 202.654 6.94802 204.358 6.94802C205.87 6.94802 207.094 7.21202 208.03 7.74002C208.966 8.24402 209.686 8.92802 210.19 9.79202C210.694 10.632 211.03 11.556 211.198 12.564C211.39 13.572 211.486 14.58 211.486 15.588V15.912H199.39L199.426 14.76H208.138C208.138 13.32 208.018 12.108 207.778 11.124C207.562 10.116 207.178 9.36002 206.626 8.85602C206.098 8.32802 205.354 8.06402 204.394 8.06402C203.386 8.06402 202.558 8.34002 201.91 8.89202C201.286 9.44402 200.818 10.26 200.506 11.34C200.218 12.396 200.062 13.704 200.038 15.264C200.038 16.296 200.098 17.28 200.218 18.216C200.362 19.152 200.614 19.992 200.974 20.736C201.358 21.48 201.886 22.068 202.558 22.5C203.254 22.932 204.154 23.148 205.258 23.148C206.29 23.148 207.142 22.968 207.814 22.608C208.486 22.224 209.026 21.732 209.434 21.132C209.842 20.532 210.154 19.92 210.37 19.296L211.342 19.728C211.078 20.544 210.682 21.324 210.154 22.068C209.65 22.812 208.93 23.424 207.994 23.904C207.082 24.36 205.858 24.588 204.322 24.588Z" fill="#FFFEDE"/>
</g>
<line id="Line 8" x1="705" y1="13.692" x2="705" y2="639.692" stroke="#ADADAD" stroke-opacity="0.25" stroke-width="2"/>
<line id="Line 13" x1="706" y1="640.692" x2="681" y2="640.692" stroke="#ADADAD" stroke-opacity="0.25" stroke-width="2"/>
<line id="Line 17" x1="25" y1="640.692" y2="640.692" stroke="#ADADAD" stroke-opacity="0.25" stroke-width="2"/>
<line id="Line 14" x1="1.00012" y1="14.692" x2="1.00009" y2="639.692" stroke="#ADADAD" stroke-opacity="0.25" stroke-width="2"/>
<path id="Line 7" d="M680 13.692L706 13.692" stroke="#ADADAD" stroke-opacity="0.25" stroke-width="2"/>
<line id="Line 16" y1="13.692" x2="25" y2="13.692" stroke="#ADADAD" stroke-opacity="0.25" stroke-width="2"/>
</g>
</g>
</svg>
