<svg width="702" height="640" viewBox="0 0 702 640" fill="none" xmlns="http://www.w3.org/2000/svg">
<path d="M0 14.692H702V639.692H0V14.692Z" fill="#102B33"/>
<path d="M32.896 24.588C30.28 24.588 28.348 23.832 27.1 22.32C25.876 20.784 25.264 18.66 25.264 15.948C25.264 14.076 25.54 12.468 26.092 11.124C26.668 9.78002 27.52 8.74802 28.648 8.02802C29.8 7.30802 31.228 6.94802 32.932 6.94802C34.444 6.94802 35.668 7.21202 36.604 7.74002C37.54 8.24402 38.26 8.92802 38.764 9.79202C39.268 10.632 39.604 11.556 39.772 12.564C39.964 13.572 40.06 14.58 40.06 15.588V15.912H27.964L28 14.76H36.712C36.712 13.32 36.592 12.108 36.352 11.124C36.136 10.116 35.752 9.36002 35.2 8.85602C34.672 8.32802 33.928 8.06402 32.968 8.06402C31.96 8.06402 31.132 8.34002 30.484 8.89202C29.86 9.44402 29.392 10.26 29.08 11.34C28.792 12.396 28.636 13.704 28.612 15.264C28.612 16.296 28.672 17.28 28.792 18.216C28.936 19.152 29.188 19.992 29.548 20.736C29.932 21.48 30.46 22.068 31.132 22.5C31.828 22.932 32.728 23.148 33.832 23.148C34.864 23.148 35.716 22.968 36.388 22.608C37.06 22.224 37.6 21.732 38.008 21.132C38.416 20.532 38.728 19.92 38.944 19.296L39.916 19.728C39.652 20.544 39.256 21.324 38.728 22.068C38.224 22.812 37.504 23.424 36.568 23.904C35.656 24.36 34.432 24.588 32.896 24.588ZM51.4309 24.192V23.148H52.5829C52.8949 23.148 53.0869 23.04 53.1589 22.824C53.2309 22.608 53.1469 22.32 52.9069 21.96L44.7349 9.61202C44.3749 9.10802 44.0389 8.78402 43.7269 8.64002C43.4389 8.47202 42.9349 8.38802 42.2149 8.38802V7.34402H49.1269V8.38802H48.3349C48.0709 8.38802 47.8909 8.48402 47.7949 8.67602C47.7229 8.86802 47.7709 9.09602 47.9389 9.36002L56.2189 21.636C56.6029 22.164 56.9749 22.548 57.3349 22.788C57.6949 23.028 58.3069 23.148 59.1709 23.148V24.192H51.4309ZM42.0709 24.192V23.148C42.8149 23.148 43.4269 23.04 43.9069 22.824C44.3869 22.608 44.8549 22.2 45.3109 21.6L49.6669 15.624L49.8469 17.028L46.5349 21.996C46.3669 22.284 46.3189 22.548 46.3909 22.788C46.4869 23.028 46.7029 23.148 47.0389 23.148H48.0829V24.192H42.0709ZM50.9629 15.228L50.7829 13.932L53.9149 9.28802C54.1069 9.02402 54.1549 8.80802 54.0589 8.64002C53.9869 8.47202 53.8309 8.38802 53.5909 8.38802H52.4749V7.34402H58.1269V8.38802C57.5749 8.38802 57.1309 8.42402 56.7949 8.49602C56.4589 8.56802 56.1709 8.70002 55.9309 8.89202C55.6909 9.06002 55.4389 9.31202 55.1749 9.64802L50.9629 15.228ZM60.6872 31.392V30.348C61.4792 30.348 62.0432 30.3 62.3792 30.204C62.7152 30.132 62.9192 29.952 62.9912 29.664C63.0872 29.376 63.1352 28.956 63.1352 28.404V10.332C63.1352 9.75602 63.0632 9.37202 62.9192 9.18002C62.7752 8.98802 62.4392 8.89202 61.9112 8.89202H60.8312V7.84802L65.1152 7.12802H66.0872V8.89202H66.1952V28.404C66.1952 28.956 66.2432 29.376 66.3392 29.664C66.4592 29.952 66.6992 30.132 67.0592 30.204C67.4432 30.3 68.0432 30.348 68.8592 30.348V31.392H60.6872ZM70.4792 24.624C69.5672 24.624 68.7872 24.492 68.1392 24.228C67.5152 23.988 66.9752 23.688 66.5192 23.328C66.0632 22.944 65.6312 22.584 65.2232 22.248V20.376C65.4632 20.736 65.7392 21.108 66.0512 21.492C66.3632 21.852 66.7232 22.188 67.1312 22.5C67.5392 22.788 67.9832 23.028 68.4632 23.22C68.9672 23.388 69.5072 23.472 70.0832 23.472C71.5712 23.472 72.7112 22.86 73.5032 21.636C74.3192 20.412 74.7272 18.48 74.7272 15.84C74.7272 13.536 74.3792 11.724 73.6832 10.404C72.9872 9.08402 71.8712 8.42402 70.3352 8.42402C69.5432 8.42402 68.8232 8.58002 68.1752 8.89202C67.5272 9.20402 66.9872 9.55202 66.5552 9.93602C66.1232 10.296 65.7992 10.572 65.5832 10.764V9.39602C65.8232 9.13202 66.1952 8.80802 66.6992 8.42402C67.2272 8.04002 67.8992 7.70402 68.7152 7.41602C69.5312 7.10402 70.4672 6.94802 71.5232 6.94802C73.6592 6.94802 75.2792 7.65602 76.3832 9.07202C77.5112 10.488 78.0752 12.588 78.0752 15.372C78.0752 17.508 77.7512 19.26 77.1032 20.628C76.4792 21.996 75.6032 23.004 74.4752 23.652C73.3472 24.3 72.0152 24.624 70.4792 24.624ZM89.2163 24.588C86.6003 24.588 84.6683 23.832 83.4203 22.32C82.1963 20.784 81.5843 18.66 81.5843 15.948C81.5843 14.076 81.8603 12.468 82.4123 11.124C82.9883 9.78002 83.8403 8.74802 84.9683 8.02802C86.1203 7.30802 87.5483 6.94802 89.2523 6.94802C90.7643 6.94802 91.9883 7.21202 92.9243 7.74002C93.8603 8.24402 94.5803 8.92802 95.0843 9.79202C95.5883 10.632 95.9243 11.556 96.0923 12.564C96.2843 13.572 96.3803 14.58 96.3803 15.588V15.912H84.2843L84.3203 14.76H93.0323C93.0323 13.32 92.9123 12.108 92.6723 11.124C92.4563 10.116 92.0723 9.36002 91.5203 8.85602C90.9923 8.32802 90.2483 8.06402 89.2883 8.06402C88.2803 8.06402 87.4523 8.34002 86.8043 8.89202C86.1803 9.44402 85.7123 10.26 85.4003 11.34C85.1123 12.396 84.9563 13.704 84.9323 15.264C84.9323 16.296 84.9923 17.28 85.1123 18.216C85.2563 19.152 85.5083 19.992 85.8683 20.736C86.2523 21.48 86.7803 22.068 87.4523 22.5C88.1483 22.932 89.0483 23.148 90.1523 23.148C91.1843 23.148 92.0363 22.968 92.7083 22.608C93.3803 22.224 93.9203 21.732 94.3283 21.132C94.7363 20.532 95.0483 19.92 95.2643 19.296L96.2363 19.728C95.9723 20.544 95.5763 21.324 95.0483 22.068C94.5443 22.812 93.8243 23.424 92.8883 23.904C91.9763 24.36 90.7523 24.588 89.2163 24.588ZM99.3273 24.192V23.148C100.119 23.148 100.683 23.1 101.019 23.004C101.355 22.908 101.559 22.728 101.631 22.464C101.727 22.176 101.775 21.756 101.775 21.204V10.476C101.775 9.85202 101.703 9.44402 101.559 9.25202C101.415 9.03602 101.139 8.92802 100.731 8.92802H99.5073V7.84802L103.755 7.12802H104.727V10.512H104.835V21.204C104.835 21.78 104.883 22.212 104.979 22.5C105.099 22.764 105.351 22.944 105.735 23.04C106.119 23.112 106.731 23.148 107.571 23.148V24.192H99.3273ZM104.691 14.04V10.728C104.859 10.416 105.063 10.044 105.303 9.61202C105.543 9.18002 105.843 8.76002 106.203 8.35202C106.563 7.94402 106.995 7.60802 107.499 7.34402C108.003 7.05602 108.579 6.91202 109.227 6.91202C110.091 6.91202 110.751 7.16402 111.207 7.66802C111.687 8.17202 111.927 8.86802 111.927 9.75602C111.927 10.428 111.759 10.98 111.423 11.412C111.111 11.844 110.595 12.06 109.875 12.06C109.251 12.06 108.783 11.892 108.471 11.556C108.159 11.22 108.003 10.824 108.003 10.368C108.003 10.008 108.075 9.72002 108.219 9.50402C108.363 9.28802 108.507 9.10802 108.651 8.96402C108.795 8.82002 108.867 8.67602 108.867 8.53202C108.867 8.43602 108.831 8.36402 108.759 8.31602C108.687 8.24402 108.567 8.20802 108.399 8.20802C108.039 8.20802 107.655 8.36402 107.247 8.67602C106.839 8.96402 106.443 9.38402 106.059 9.93602C105.699 10.464 105.399 11.076 105.159 11.772C104.943 12.468 104.835 13.212 104.835 14.004L104.691 14.04ZM113.494 24.192V23.148C114.262 23.148 114.814 23.1 115.15 23.004C115.51 22.908 115.726 22.728 115.798 22.464C115.894 22.176 115.942 21.756 115.942 21.204V10.476C115.942 9.85202 115.87 9.44402 115.726 9.25202C115.582 9.03602 115.306 8.92802 114.898 8.92802H113.638V7.84802L118.03 7.12802H119.002V21.204C119.002 21.78 119.05 22.212 119.146 22.5C119.242 22.764 119.458 22.944 119.794 23.04C120.154 23.112 120.718 23.148 121.486 23.148V24.192H113.494ZM117.382 3.96002C116.782 3.96002 116.302 3.76802 115.942 3.38402C115.582 3.00002 115.402 2.54401 115.402 2.01601C115.402 1.44001 115.582 0.960015 115.942 0.576016C116.302 0.192015 116.782 1.4782e-05 117.382 1.4782e-05C117.79 1.4782e-05 118.138 0.096015 118.426 0.288015C118.738 0.456016 118.966 0.696016 119.11 1.00801C119.278 1.29602 119.362 1.63202 119.362 2.01601C119.362 2.54401 119.17 3.00002 118.786 3.38402C118.426 3.76802 117.958 3.96002 117.382 3.96002ZM132.283 24.588C129.667 24.588 127.735 23.832 126.487 22.32C125.263 20.784 124.651 18.66 124.651 15.948C124.651 14.076 124.927 12.468 125.479 11.124C126.055 9.78002 126.907 8.74802 128.035 8.02802C129.187 7.30802 130.615 6.94802 132.319 6.94802C133.831 6.94802 135.055 7.21202 135.991 7.74002C136.927 8.24402 137.647 8.92802 138.151 9.79202C138.655 10.632 138.991 11.556 139.159 12.564C139.351 13.572 139.447 14.58 139.447 15.588V15.912H127.351L127.387 14.76H136.099C136.099 13.32 135.979 12.108 135.739 11.124C135.523 10.116 135.139 9.36002 134.587 8.85602C134.059 8.32802 133.315 8.06402 132.355 8.06402C131.347 8.06402 130.519 8.34002 129.871 8.89202C129.247 9.44402 128.779 10.26 128.467 11.34C128.179 12.396 128.023 13.704 127.999 15.264C127.999 16.296 128.059 17.28 128.179 18.216C128.323 19.152 128.575 19.992 128.935 20.736C129.319 21.48 129.847 22.068 130.519 22.5C131.215 22.932 132.115 23.148 133.219 23.148C134.251 23.148 135.103 22.968 135.775 22.608C136.447 22.224 136.987 21.732 137.395 21.132C137.803 20.532 138.115 19.92 138.331 19.296L139.303 19.728C139.039 20.544 138.643 21.324 138.115 22.068C137.611 22.812 136.891 23.424 135.955 23.904C135.043 24.36 133.819 24.588 132.283 24.588ZM153.158 24.192V23.148C153.878 23.148 154.406 23.112 154.742 23.04C155.078 22.968 155.294 22.8 155.39 22.536C155.486 22.272 155.534 21.852 155.534 21.276V12.528C155.534 11.808 155.426 11.16 155.21 10.584C154.994 10.008 154.634 9.55202 154.13 9.21602C153.65 8.85602 153.002 8.67602 152.186 8.67602C151.082 8.67602 150.182 8.97602 149.486 9.57602C148.79 10.176 148.166 10.872 147.614 11.664V10.116C148.19 9.39602 148.778 8.80802 149.378 8.35202C149.978 7.87202 150.626 7.52402 151.322 7.30802C152.042 7.06802 152.834 6.94802 153.698 6.94802C155.33 6.94802 156.542 7.38002 157.334 8.24402C158.15 9.10802 158.558 10.404 158.558 12.132V21.204C158.558 21.756 158.606 22.176 158.702 22.464C158.798 22.728 159.014 22.908 159.35 23.004C159.71 23.1 160.274 23.148 161.042 23.148V24.192H153.158ZM142.394 24.192V23.148C143.186 23.148 143.75 23.1 144.086 23.004C144.422 22.908 144.626 22.728 144.698 22.464C144.794 22.176 144.842 21.756 144.842 21.204V10.476C144.842 9.85202 144.77 9.44402 144.626 9.25202C144.482 9.03602 144.206 8.92802 143.798 8.92802H142.574V7.84802L146.822 7.12802H147.794V9.79202H147.902V21.276C147.902 21.852 147.95 22.272 148.046 22.536C148.142 22.8 148.358 22.968 148.694 23.04C149.054 23.112 149.582 23.148 150.278 23.148V24.192H142.394ZM171.063 24.588C169.383 24.588 167.955 24.228 166.779 23.508C165.627 22.788 164.751 21.78 164.151 20.484C163.575 19.188 163.287 17.664 163.287 15.912C163.287 14.64 163.443 13.464 163.755 12.384C164.091 11.28 164.583 10.332 165.231 9.54002C165.879 8.72402 166.719 8.08802 167.751 7.63202C168.783 7.17602 169.995 6.94802 171.387 6.94802C172.539 6.94802 173.559 7.10402 174.447 7.41602C175.359 7.72802 176.079 8.17202 176.607 8.74802C177.135 9.32402 177.399 10.032 177.399 10.872C177.399 11.472 177.243 11.964 176.931 12.348C176.619 12.708 176.151 12.888 175.527 12.888C174.927 12.888 174.471 12.72 174.159 12.384C173.847 12.048 173.691 11.628 173.691 11.124C173.691 10.74 173.751 10.44 173.871 10.224C174.015 10.008 174.147 9.82802 174.267 9.68402C174.411 9.54002 174.483 9.37202 174.483 9.18002C174.483 8.84402 174.231 8.58002 173.727 8.38802C173.247 8.17202 172.623 8.06402 171.855 8.06402C170.847 8.06402 169.947 8.29202 169.155 8.74802C168.387 9.18002 167.775 9.93602 167.319 11.016C166.887 12.096 166.671 13.596 166.671 15.516C166.671 17.34 166.875 18.816 167.283 19.944C167.715 21.072 168.315 21.888 169.083 22.392C169.875 22.896 170.799 23.148 171.855 23.148C172.935 23.148 173.799 22.956 174.447 22.572C175.119 22.188 175.635 21.744 175.995 21.24C176.355 20.712 176.607 20.28 176.751 19.944L177.615 20.448C177.519 20.76 177.339 21.144 177.075 21.6C176.811 22.056 176.427 22.512 175.923 22.968C175.443 23.424 174.807 23.808 174.015 24.12C173.223 24.432 172.239 24.588 171.063 24.588ZM188.322 24.588C185.706 24.588 183.774 23.832 182.526 22.32C181.302 20.784 180.69 18.66 180.69 15.948C180.69 14.076 180.966 12.468 181.518 11.124C182.094 9.78002 182.946 8.74802 184.074 8.02802C185.226 7.30802 186.654 6.94802 188.358 6.94802C189.87 6.94802 191.094 7.21202 192.03 7.74002C192.966 8.24402 193.686 8.92802 194.19 9.79202C194.694 10.632 195.03 11.556 195.198 12.564C195.39 13.572 195.486 14.58 195.486 15.588V15.912H183.39L183.426 14.76H192.138C192.138 13.32 192.018 12.108 191.778 11.124C191.562 10.116 191.178 9.36002 190.626 8.85602C190.098 8.32802 189.354 8.06402 188.394 8.06402C187.386 8.06402 186.558 8.34002 185.91 8.89202C185.286 9.44402 184.818 10.26 184.506 11.34C184.218 12.396 184.062 13.704 184.038 15.264C184.038 16.296 184.098 17.28 184.218 18.216C184.362 19.152 184.614 19.992 184.974 20.736C185.358 21.48 185.886 22.068 186.558 22.5C187.254 22.932 188.154 23.148 189.258 23.148C190.29 23.148 191.142 22.968 191.814 22.608C192.486 22.224 193.026 21.732 193.434 21.132C193.842 20.532 194.154 19.92 194.37 19.296L195.342 19.728C195.078 20.544 194.682 21.324 194.154 22.068C193.65 22.812 192.93 23.424 191.994 23.904C191.082 24.36 189.858 24.588 188.322 24.588Z" fill="#FFFEDE"/>
</svg>
