<svg width="240" height="272" viewBox="0 0 240 272" fill="none" xmlns="http://www.w3.org/2000/svg">
<path d="M120 25C145 55 215 100 215 155C215 200 175 220 145 205C133.667 199.667 128.667 201.333 130 210L148 265H92L110 210C111.333 201.333 106.333 199.667 95 205C65 220 25 200 25 155C25 100 95 55 120 25Z" fill="#000C0C" fill-opacity="0.55" stroke="#FFFEDE" stroke-width="1.8" stroke-linecap="round" stroke-linejoin="round"/>
<path opacity="0.35" d="M120 48C140 72 195 108 195 155C195 190 168 205 145 193C136.333 189.667 132.333 192 133 200L143 250H97L107 200C107.667 192 103.667 189.667 95 193C72 205 45 190 45 155C45 108 100 72 120 48Z" stroke="#FFFEDE" stroke-width="0.5" stroke-linecap="round" stroke-linejoin="round"/>
<g opacity="0.55">
<path d="M99.9999 202C64.9999 195 39.9999 175 41.9999 145C44.9999 105 77.9999 65 115 42" stroke="#FFFEDE" stroke-width="0.6" stroke-linecap="round" stroke-linejoin="round"/>
<path d="M140 202C175 195 200 175 198 145C195 105 162 65 125 42" stroke="#FFFEDE" stroke-width="0.6" stroke-linecap="round" stroke-linejoin="round"/>
</g>
<g opacity="0.5">
<path d="M103 200C75 188 55 170 55 140C60 108 92 75 118 47" stroke="#FFFEDE" stroke-width="0.5" stroke-linecap="round" stroke-linejoin="round" stroke-dasharray="3 2.5"/>
<path d="M137 200C165 188 185 170 185 140C180 108 148 75 122 47" stroke="#FFFEDE" stroke-width="0.5" stroke-linecap="round" stroke-linejoin="round" stroke-dasharray="3 2.5"/>
</g>
<g opacity="0.45">
<path d="M106 200C88 180 75 160 72 130C75 100 100 78 120 55" stroke="#FFFEDE" stroke-width="0.5" stroke-linecap="round" stroke-linejoin="round" stroke-dasharray="0.7 2.2"/>
<path d="M134 200C152 180 165 160 168 130C165 100 140 78 120 55" stroke="#FFFEDE" stroke-width="0.5" stroke-linecap="round" stroke-linejoin="round" stroke-dasharray="0.7 2.2"/>
</g>
<g opacity="0.5">
<path d="M110 198C105 165 99.9998 130 105 95C110 65 117 47 120 42" stroke="#FFFEDE" stroke-width="0.55" stroke-linecap="round" stroke-linejoin="round"/>
<path d="M130 198C135 165 140 130 135 95C130 65 123 47 120 42" stroke="#FFFEDE" stroke-width="0.55" stroke-linecap="round" stroke-linejoin="round"/>
</g>
<g opacity="0.5">
<path d="M110 62L115 57" stroke="#FFFEDE" stroke-width="0.5" stroke-linecap="round" stroke-linejoin="round"/>
<path d="M130 62L125 57" stroke="#FFFEDE" stroke-width="0.5" stroke-linecap="round" stroke-linejoin="round"/>
</g>
<g opacity="0.6">
<path d="M42 145.8C42.4418 145.8 42.7999 145.442 42.7999 145C42.7999 144.558 42.4418 144.2 42 144.2C41.5581 144.2 41.2 144.558 41.2 145C41.2 145.442 41.5581 145.8 42 145.8Z" fill="#FFFEDE"/>
<path d="M198 145.8C198.442 145.8 198.8 145.442 198.8 145C198.8 144.558 198.442 144.2 198 144.2C197.558 144.2 197.2 144.558 197.2 145C197.2 145.442 197.558 145.8 198 145.8Z" fill="#FFFEDE"/>
<path d="M72 130.55C72.3037 130.55 72.55 130.304 72.55 130C72.55 129.696 72.3037 129.45 72 129.45C71.6962 129.45 71.45 129.696 71.45 130C71.45 130.304 71.6962 130.55 72 130.55Z" fill="#FFFEDE"/>
<path d="M168 130.55C168.304 130.55 168.55 130.304 168.55 130C168.55 129.696 168.304 129.45 168 129.45C167.696 129.45 167.45 129.696 167.45 130C167.45 130.304 167.696 130.55 168 130.55Z" fill="#FFFEDE"/>
</g>
<g opacity="0.7">
<path d="M36 203L41 197" stroke="#FFFEDE" stroke-width="0.75" stroke-linecap="round" stroke-linejoin="round"/>
<path d="M27 190L33 185" stroke="#FFFEDE" stroke-width="0.75" stroke-linecap="round" stroke-linejoin="round"/>
<path d="M20 176L27 174" stroke="#FFFEDE" stroke-width="0.75" stroke-linecap="round" stroke-linejoin="round"/>
<path d="M18 162L24 161" stroke="#FFFEDE" stroke-width="0.75" stroke-linecap="round" stroke-linejoin="round"/>
<path d="M20 148L25 149" stroke="#FFFEDE" stroke-width="0.75" stroke-linecap="round" stroke-linejoin="round"/>
<path d="M85 59L86 63" stroke="#FFFEDE" stroke-width="0.75" stroke-linecap="round" stroke-linejoin="round"/>
<path d="M97 48L98 54" stroke="#FFFEDE" stroke-width="0.75" stroke-linecap="round" stroke-linejoin="round"/>
<path d="M106 40L107 46" stroke="#FFFEDE" stroke-width="0.75" stroke-linecap="round" stroke-linejoin="round"/>
</g>
<path d="M43 208L46.846 209.41C53.381 211.806 57.409 218.384 56.573 225.295L56.125 229" stroke="#FFFEDE" stroke-width="1.1" stroke-linecap="round" stroke-linejoin="round" stroke-dasharray="2.4 2.4"/>
<path d="M196.82 207.628C196.722 207.704 196.658 207.816 196.642 207.939C196.626 208.062 196.659 208.186 196.735 208.285C196.81 208.383 196.922 208.447 197.045 208.464C197.168 208.48 197.292 208.447 197.391 208.372C200.782 205.782 203.962 202.9 206.861 199.759C219.693 186.345 226.494 165.984 220.317 147.86C220.316 147.856 220.313 147.847 220.312 147.843C210.631 120.774 192.468 97.81 172.62 77.4794C159.545 64.3966 145.07 52.6264 128.727 43.696C119.23 38.597 110.061 31.9945 104.204 23.1463C103.17 21.4673 102.22 19.5127 102.231 17.9125C102.267 17.1103 102.493 16.7417 103.068 16.4798C103.666 16.217 104.603 16.1938 105.552 16.3246C105.881 16.3687 106.213 16.2803 106.476 16.0783C106.739 15.8764 106.911 15.5773 106.954 15.2476C106.997 14.9179 106.908 14.5846 106.706 14.3217C106.504 14.0588 106.206 13.8878 105.877 13.8458C104.692 13.7098 103.436 13.6376 102.072 14.2084C100.642 14.7272 97.8793 18.1803 97.951 19.5C97.9981 21.5387 97.9736 19.3264 97.9591 20.3188C97.9388 21.7125 98.3558 23.0868 99.1851 24.2071C105.524 32.7701 114.329 38.8156 123.5 43.696C139.568 52.3434 158.268 65.9291 171.287 78.8061C191.132 98.8771 209.315 121.621 219.029 148.287L219.024 148.271C225.135 165.865 218.689 185.739 206.113 199.073C203.274 202.186 200.153 205.05 196.82 207.628Z" fill="#FFFEDE"/>
<g opacity="0.7">
<path d="M203 202L199 197" stroke="#FFFEDE" stroke-width="0.75" stroke-linecap="round" stroke-linejoin="round"/>
<path d="M213 190L208 185" stroke="#FFFEDE" stroke-width="0.75" stroke-linecap="round" stroke-linejoin="round"/>
<path d="M220 176L213 174" stroke="#FFFEDE" stroke-width="0.75" stroke-linecap="round" stroke-linejoin="round"/>
<path d="M222 162L216 161" stroke="#FFFEDE" stroke-width="0.75" stroke-linecap="round" stroke-linejoin="round"/>
<path d="M220 148L215 149" stroke="#FFFEDE" stroke-width="0.75" stroke-linecap="round" stroke-linejoin="round"/>
<path d="M142 48L141 52" stroke="#FFFEDE" stroke-width="0.75" stroke-linecap="round" stroke-linejoin="round"/>
<path d="M132.5 39.5L131 45" stroke="#FFFEDE" stroke-width="0.75" stroke-linecap="round" stroke-linejoin="round"/>
</g>
<path d="M100 248H140" stroke="#FFFEDE" stroke-width="0.7" stroke-linecap="round" stroke-linejoin="round" stroke-dasharray="1.5 2"/>
<path d="M197 208L193.154 209.41C186.619 211.806 182.591 218.384 183.427 225.295L183.875 229" stroke="#FFFEDE" stroke-width="1.1" stroke-linecap="round" stroke-linejoin="round" stroke-dasharray="2.4 2.4"/>
<g opacity="0.65">
<path d="M100 250L104 256.5L100 263L96 256.5L100 250Z" stroke="#FFFEDE" stroke-width="0.7" stroke-linecap="round" stroke-linejoin="round"/>
<path d="M108 250L112 256.5L108 263L104 256.5L108 250Z" stroke="#FFFEDE" stroke-width="0.7" stroke-linecap="round" stroke-linejoin="round"/>
<path d="M116 250L120 256.5L116 263L112 256.5L116 250Z" stroke="#FFFEDE" stroke-width="0.7" stroke-linecap="round" stroke-linejoin="round"/>
<path d="M124 250L128 256.5L124 263L120 256.5L124 250Z" stroke="#FFFEDE" stroke-width="0.7" stroke-linecap="round" stroke-linejoin="round"/>
<path d="M132 250L136 256.5L132 263L128 256.5L132 250Z" stroke="#FFFEDE" stroke-width="0.7" stroke-linecap="round" stroke-linejoin="round"/>
<path d="M120 200L133 223L120 246L107 223L120 200Z" stroke="#FFFEDE" stroke-width="0.7" stroke-linecap="round" stroke-linejoin="round"/>
<path d="M140 250L144 256.5L140 263L136 256.5L140 250Z" stroke="#FFFEDE" stroke-width="0.7" stroke-linecap="round" stroke-linejoin="round"/>
</g>
<path d="M112.346 13.9877C112.101 13.9383 111.112 13.9331 109.113 14.3076L108.399 14.2554L107.163 13.8648L106.122 13.8505L103 13.8077L104.069 16.0354L107.146 16.8183L107.806 17.132L108.528 17.483L109.529 17.8762L110.883 18.1461L112.019 18.4111L113.365 18.3822L114.277 18.3434L114.951 18.2036L115.18 18.0059L115.513 17.7866L115.701 17.6476L116.114 17.8123L116.588 18.0143L117.051 18.419L117.296 18.8188L117.573 19.1118L117.473 18.6318L117.352 18.3065L117.208 18.136L117.169 17.944L117.539 18.1675L117.767 18.2205L118.086 18.4547L118.026 18.1667L117.687 17.8365L117.099 17.608L116.251 17.4333L115.755 17.3861L115.871 17.1618L116.152 16.9533L116.122 16.8093L116.341 16.5635L116.188 16.345L115.755 16.0843L115.115 15.8666L114.23 15.2491L113.397 14.6209L112.346 13.9877Z" fill="#FFFEDE"/>
<path d="M111.467 15.6847L110.962 15.7894L111.117 15.8443L111.41 15.8707L111.556 15.8839L111.674 15.9901L111.8 16.138L111.939 16.4576L112.116 16.5079L112.308 16.5116L112.537 16.464L112.704 16.3425L112.778 16.24L113.007 16.1924L113.245 16.1866L113.529 16.1713L113.211 16.0196L112.875 15.7845L112.657 15.6556L112.347 15.5457L111.925 15.5896L111.467 15.6847Z" fill="#1E1E1E"/>
<path d="M43.18 207.628C43.278 207.704 43.342 207.816 43.358 207.939C43.374 208.062 43.341 208.186 43.265 208.285C43.19 208.383 43.078 208.447 42.955 208.464C42.832 208.48 42.708 208.447 42.609 208.372C39.218 205.782 36.038 202.9 33.139 199.759C20.307 186.345 13.506 165.984 19.683 147.86C19.684 147.856 19.687 147.847 19.688 147.843C29.369 120.774 47.532 97.81 67.38 77.4794C80.455 64.3966 94.93 52.6264 111.273 43.696C120.77 38.597 129.939 31.9945 135.796 23.1463C136.83 21.4673 137.78 19.5127 137.769 17.9125C137.733 17.1103 137.507 16.7417 136.932 16.4798C136.334 16.217 135.397 16.1938 134.448 16.3246C134.119 16.3687 133.787 16.2803 133.524 16.0783C133.261 15.8764 133.089 15.5773 133.046 15.2476C133.003 14.9179 133.092 14.5846 133.294 14.3217C133.496 14.0588 133.794 13.8878 134.123 13.8458C135.308 13.7098 136.564 13.6376 137.928 14.2084C139.358 14.7272 142.1207 18.1803 142.049 19.5C142.0019 21.5387 142.0264 19.3264 142.0409 20.3188C142.0612 21.7125 141.6442 23.0868 140.8149 24.2071C134.476 32.7701 125.671 38.8156 116.5 43.696C100.432 52.3434 81.732 65.9291 68.713 78.8061C48.868 98.8771 30.685 121.621 20.971 148.287L20.976 148.271C14.865 165.865 21.311 185.739 33.887 199.073C36.726 202.186 39.847 205.05 43.18 207.628Z" fill="#FFFEDE"/>
<path d="M127.654 13.9877C127.899 13.9383 128.888 13.9331 130.887 14.3076L131.601 14.2554L132.837 13.8648L133.878 13.8505L137 13.8077L135.931 16.0354L132.854 16.8183L132.194 17.132L131.472 17.483L130.471 17.8762L129.117 18.1461L127.981 18.4111L126.635 18.3822L125.723 18.3434L125.049 18.2036L124.82 18.0059L124.487 17.7866L124.299 17.6476L123.886 17.8123L123.412 18.0143L122.949 18.419L122.704 18.8188L122.427 19.1118L122.527 18.6318L122.648 18.3065L122.792 18.136L122.831 17.944L122.461 18.1675L122.233 18.2205L121.914 18.4547L121.974 18.1667L122.313 17.8365L122.901 17.608L123.749 17.4333L124.245 17.3861L124.129 17.1618L123.848 16.9533L123.878 16.8093L123.659 16.5635L123.812 16.345L124.245 16.0843L124.885 15.8666L125.77 15.2491L126.603 14.6209L127.654 13.9877Z" fill="#FFFEDE"/>
<path d="M128.533 15.6847L129.038 15.7894L128.883 15.8443L128.59 15.8707L128.444 15.8839L128.326 15.9901L128.2 16.138L128.061 16.4576L127.884 16.5079L127.692 16.5116L127.463 16.464L127.296 16.3425L127.222 16.24L126.993 16.1924L126.755 16.1866L126.471 16.1713L126.789 16.0196L127.125 15.7845L127.343 15.6556L127.653 15.5457L128.075 15.5896L128.533 15.6847Z" fill="#1E1E1E"/>
<path d="M120.25 40L120.25 199.5" stroke="white" stroke-opacity="0.5" stroke-width="0.5"/>
<path d="M106.5 201L110 198L120 199.5L130 198L133 201" stroke="#FFFEDE" stroke-opacity="0.5" stroke-width="0.5"/>
<line x1="120.5" y1="201" x2="120.5" y2="246" stroke="black" stroke-opacity="0.01"/>
<line x1="120.25" y1="200" x2="120.25" y2="246" stroke="#FFFEDE" stroke-opacity="0.5" stroke-width="0.5"/>
<line x1="107" y1="222.65" x2="133" y2="222.65" stroke="#FFFEDE" stroke-opacity="0.5" stroke-width="0.7"/>
</svg>
